<?xml version="1.0"?>
<svg xmlns="http://www.w3.org/2000/svg" height="512px" viewBox="-32 0 512 512" width="512px" class=""><g transform="matrix(0.0676446 0 0 0.0676446 208.848 238.683)"><path d="m224 0c-123.519531 0-224 100.480469-224 224 0 119.9375 94.742188 218.175781 213.332031 223.742188v53.589843c0 3.371094 1.601563 6.550781 4.3125 8.554688 1.855469 1.386719 4.09375 2.113281 6.355469 2.113281 1.046875 0 2.089844-.148438 3.113281-.449219 123.839844-37.589843 220.886719-163.902343 220.886719-287.550781 0-123.519531-100.480469-224-224-224zm0 0" fill="#4caf50" data-original="#4CAF50" class=""/><g fill="#fafafa"><path d="m149.332031 224c0 17.671875-14.324219 32-32 32-17.671875 0-32-14.328125-32-32s14.328125-32 32-32c17.675781 0 32 14.328125 32 32zm0 0" data-original="#000000" class="active-path" style="fill:#000000"/><path d="m256 224c0 17.671875-14.328125 32-32 32s-32-14.328125-32-32 14.328125-32 32-32 32 14.328125 32 32zm0 0" data-original="#000000" class="active-path" style="fill:#000000"/><path d="m362.667969 224c0 17.671875-14.328125 32-32 32-17.675781 0-32-14.328125-32-32s14.324219-32 32-32c17.671875 0 32 14.328125 32 32zm0 0" data-original="#000000" class="active-path" style="fill:#000000"/></g><path d="m224 512c-2.261719 0-4.480469-.726562-6.355469-2.113281-2.710937-2.003907-4.3125-5.183594-4.3125-8.554688v-53.589843c-118.589843-5.585938-213.332031-103.804688-213.332031-223.742188 0-123.519531 100.480469-224 224-224s224 100.480469 224 224c0 123.648438-97.023438 249.960938-220.90625 287.550781-1.003906.300781-2.046875.449219-3.09375.449219zm0-490.667969c-111.742188 0-202.667969 90.925781-202.667969 202.667969s90.925781 202.667969 202.667969 202.667969c5.886719 0 10.667969 4.777343 10.667969 10.664062v49.175781c107.070312-39.554687 192-154.21875 192-262.507812 0-111.742188-90.925781-202.667969-202.667969-202.667969zm0 0" data-original="#000000" class="active-path" style="fill:#000000"/><path d="m117.332031 256c-17.640625 0-32-14.355469-32-32s14.359375-32 32-32c17.644531 0 32 14.355469 32 32s-14.355469 32-32 32zm0-42.667969c-5.886719 0-10.664062 4.78125-10.664062 10.667969s4.777343 10.667969 10.664062 10.667969c5.890625 0 10.667969-4.78125 10.667969-10.667969s-4.777344-10.667969-10.667969-10.667969zm0 0" data-original="#000000" class="active-path" style="fill:#000000"/><path d="m224 256c-17.644531 0-32-14.355469-32-32s14.355469-32 32-32 32 14.355469 32 32-14.355469 32-32 32zm0-42.667969c-5.886719 0-10.667969 4.78125-10.667969 10.667969s4.78125 10.667969 10.667969 10.667969 10.667969-4.78125 10.667969-10.667969-4.78125-10.667969-10.667969-10.667969zm0 0" data-original="#000000" class="active-path" style="fill:#000000"/><path d="m330.667969 256c-17.644531 0-32-14.355469-32-32s14.355469-32 32-32c17.640625 0 32 14.355469 32 32s-14.359375 32-32 32zm0-42.667969c-5.890625 0-10.667969 4.78125-10.667969 10.667969s4.777344 10.667969 10.667969 10.667969c5.886719 0 10.664062-4.78125 10.664062-10.667969s-4.777343-10.667969-10.664062-10.667969zm0 0" data-original="#000000" class="active-path" style="fill:#000000"/></g> </svg>
